<svg id="Layer_1" data-name="Layer 1" xmlns="http://www.w3.org/2000/svg" viewBox="0 0 400 74.61"><defs><style>.cls-1{fill:#3ec3d5;}.cls-2{fill:#ff535f;}</style></defs><title>logo</title><path class="cls-1" d="M38,36.62a8.08,8.08,0,0,1,1.74,5.1,8.14,8.14,0,0,1-2.89,6.56Q34,50.7,28.83,50.7H13.46v-33H28.31c3.35,0,6,.77,7.87,2.3A7.62,7.62,0,0,1,39,26.26,7.54,7.54,0,0,1,37.5,31.1a7.85,7.85,0,0,1-4.07,2.68A7.74,7.74,0,0,1,38,36.62ZM21.5,31.05h5.26a4.64,4.64,0,0,0,3-.87,3.09,3.09,0,0,0,1.06-2.56A3.17,3.17,0,0,0,29.79,25a4.53,4.53,0,0,0-3-.89H21.5Zm9,12.25a3.25,3.25,0,0,0,1.11-2.66,3.4,3.4,0,0,0-1.15-2.72,4.73,4.73,0,0,0-3.18-1H21.5v7.28h5.92A4.76,4.76,0,0,0,30.54,43.3Z"/><path class="cls-1" d="M70.32,24.47V50.7h-8V47.13A8.82,8.82,0,0,1,59,49.92,10.07,10.07,0,0,1,54.35,51,10.37,10.37,0,0,1,49,49.64a9,9,0,0,1-3.58-3.88,13.25,13.25,0,0,1-1.26-6V24.47h8V38.71a5.74,5.74,0,0,0,1.37,4.09,4.78,4.78,0,0,0,3.66,1.46,4.86,4.86,0,0,0,3.72-1.46,5.79,5.79,0,0,0,1.36-4.09V24.47Z"/><path class="cls-1" d="M76,30.44a11.5,11.5,0,0,1,4.16-4.7,11,11,0,0,1,5.88-1.64,10.34,10.34,0,0,1,4.72,1.08,8.54,8.54,0,0,1,3.36,2.91V15.92h8V50.7h-8V46.94a8.22,8.22,0,0,1-3.22,3,10.08,10.08,0,0,1-4.86,1.12,10.79,10.79,0,0,1-5.88-1.66A11.65,11.65,0,0,1,76,44.66a15.94,15.94,0,0,1-1.52-7.12A15.79,15.79,0,0,1,76,30.44Zm16.45,2.4a5.64,5.64,0,0,0-8.13,0,6.48,6.48,0,0,0-1.67,4.72,6.68,6.68,0,0,0,1.67,4.77,5.6,5.6,0,0,0,8.13,0,6.57,6.57,0,0,0,1.67-4.74A6.58,6.58,0,0,0,92.48,32.84Z"/><path class="cls-1" d="M122.84,25.23a8.32,8.32,0,0,1,3.22,3V24.47h8V50.65a14.72,14.72,0,0,1-1.44,6.56,10.91,10.91,0,0,1-4.37,4.67A14.13,14.13,0,0,1,121,63.62a15.14,15.14,0,0,1-9.44-2.75,10.36,10.36,0,0,1-4.14-7.45h7.94a3.84,3.84,0,0,0,1.79,2.38,6.51,6.51,0,0,0,3.48.87,5.45,5.45,0,0,0,4-1.44q1.48-1.42,1.48-4.58V46.94a8.81,8.81,0,0,1-3.24,3A9.79,9.79,0,0,1,118,51.07a10.77,10.77,0,0,1-5.88-1.66,11.65,11.65,0,0,1-4.16-4.75,15.8,15.8,0,0,1-1.52-7.12,15.66,15.66,0,0,1,1.52-7.1,11.5,11.5,0,0,1,4.16-4.7A10.92,10.92,0,0,1,118,24.1,10,10,0,0,1,122.84,25.23Zm1.55,7.61a5.64,5.64,0,0,0-8.13,0,6.48,6.48,0,0,0-1.67,4.72,6.68,6.68,0,0,0,1.67,4.77,5.6,5.6,0,0,0,8.13,0,6.57,6.57,0,0,0,1.67-4.74A6.58,6.58,0,0,0,124.39,32.84Z"/><path class="cls-1" d="M164.5,39.51H146.31a5.47,5.47,0,0,0,1.58,3.74,4.8,4.8,0,0,0,3.4,1.29A4.23,4.23,0,0,0,155.48,42H164a11.77,11.77,0,0,1-6.67,7.9,15,15,0,0,1-12.64-.47,11.62,11.62,0,0,1-4.7-4.7,14.5,14.5,0,0,1-1.7-7.14A14.72,14.72,0,0,1,140,30.44a11.58,11.58,0,0,1,4.68-4.7,14.23,14.23,0,0,1,6.91-1.64,14,14,0,0,1,6.76,1.6A11.39,11.39,0,0,1,163,30.25a13.89,13.89,0,0,1,1.67,6.91A21.28,21.28,0,0,1,164.5,39.51Zm-8.08-4.46A4.12,4.12,0,0,0,155,31.76a5.18,5.18,0,0,0-3.53-1.22,5.09,5.09,0,0,0-3.4,1.17,5.23,5.23,0,0,0-1.72,3.34Z"/><path class="cls-1" d="M183.49,43.88V50.7H179.4a10,10,0,0,1-6.82-2.14c-1.63-1.43-2.44-3.75-2.44-7V31.15h-3.2V24.47h3.2V18.08h8v6.39h5.26v6.68h-5.26V41.67a2.2,2.2,0,0,0,.56,1.7,2.78,2.78,0,0,0,1.88.51Z"/><path class="cls-1" d="M256.38,36.62a8.08,8.08,0,0,1,1.74,5.1,8.14,8.14,0,0,1-2.89,6.56q-2.89,2.41-8.06,2.42H231.8v-33h14.85c3.35,0,6,.77,7.87,2.3a7.62,7.62,0,0,1,2.85,6.25,7.54,7.54,0,0,1-1.53,4.84,7.85,7.85,0,0,1-4.07,2.68A7.74,7.74,0,0,1,256.38,36.62Zm-16.54-5.57h5.26a4.64,4.64,0,0,0,3-.87,3.09,3.09,0,0,0,1.06-2.56A3.17,3.17,0,0,0,248.13,25a4.53,4.53,0,0,0-3-.89h-5.26Zm9,12.25A3.25,3.25,0,0,0,250,40.64a3.4,3.4,0,0,0-1.15-2.72,4.73,4.73,0,0,0-3.18-1h-5.82v7.28h5.92A4.74,4.74,0,0,0,248.88,43.3Z"/><path class="cls-1" d="M288.67,24.47V50.7h-8V47.13a8.82,8.82,0,0,1-3.31,2.79A10.07,10.07,0,0,1,272.69,51a10.37,10.37,0,0,1-5.31-1.34,8.91,8.91,0,0,1-3.57-3.88,13.12,13.12,0,0,1-1.27-6V24.47h8V38.71a5.74,5.74,0,0,0,1.37,4.09,4.78,4.78,0,0,0,3.66,1.46,4.86,4.86,0,0,0,3.72-1.46,5.79,5.79,0,0,0,1.36-4.09V24.47Z"/><path class="cls-1" d="M294.37,30.44a11.5,11.5,0,0,1,4.16-4.7,11,11,0,0,1,5.88-1.64,10.34,10.34,0,0,1,4.72,1.08,8.54,8.54,0,0,1,3.36,2.91V15.92h8V50.7h-8V46.94a8.29,8.29,0,0,1-3.22,3,10.08,10.08,0,0,1-4.86,1.12,10.79,10.79,0,0,1-5.88-1.66,11.65,11.65,0,0,1-4.16-4.75,15.94,15.94,0,0,1-1.52-7.12A15.79,15.79,0,0,1,294.37,30.44Zm16.45,2.4a5.64,5.64,0,0,0-8.13,0A6.48,6.48,0,0,0,301,37.54a6.68,6.68,0,0,0,1.67,4.77,5.6,5.6,0,0,0,8.13,0,6.57,6.57,0,0,0,1.67-4.74A6.58,6.58,0,0,0,310.82,32.84Z"/><path class="cls-1" d="M326.28,30.44a11.5,11.5,0,0,1,4.16-4.7,10.92,10.92,0,0,1,5.88-1.64A10.34,10.34,0,0,1,341,25.18a8.61,8.61,0,0,1,3.36,2.91V15.92h8V50.7h-8V46.94a8.29,8.29,0,0,1-3.22,3,10.08,10.08,0,0,1-4.86,1.12,10.77,10.77,0,0,1-5.88-1.66,11.65,11.65,0,0,1-4.16-4.75,15.8,15.8,0,0,1-1.52-7.12A15.66,15.66,0,0,1,326.28,30.44Zm16.45,2.4a5.64,5.64,0,0,0-8.13,0,6.48,6.48,0,0,0-1.67,4.72,6.68,6.68,0,0,0,1.67,4.77,5.6,5.6,0,0,0,8.13,0,6.57,6.57,0,0,0,1.67-4.74A6.58,6.58,0,0,0,342.73,32.84Z"/><path class="cls-1" d="M385.05,24.47,368.6,63.15H360l6-13.35L355.3,24.47h9l6.06,16.41,6-16.41Z"/><path class="cls-2" d="M214.56,21.11v.05c-.39,0-.78-.05-1.18-.05h-9.45a14.17,14.17,0,0,0-3.53.44c0-.15,0-.29,0-.44a7.09,7.09,0,1,1,14.18,0Zm-1.18,2.36.77,0,.93.1a7.12,7.12,0,0,1,5.39-2.48h.85a1.19,1.19,0,0,1,1.15,1.47l-1,4.07a12.16,12.16,0,0,1,2.77,3.91h1a2.36,2.36,0,0,1,2.36,2.37V40a2.36,2.36,0,0,1-2.36,2.37h-2.36a12,12,0,0,1-2.37,2.36v4.73a2.35,2.35,0,0,1-2.36,2.36h-2.36a2.36,2.36,0,0,1-2.37-2.36V47.1h-9.45v2.37a2.36,2.36,0,0,1-2.36,2.36H199.2a2.36,2.36,0,0,1-2.36-2.36V44.74a11.75,11.75,0,0,1-4.67-8.27H190a5,5,0,1,1,0-10h.3a1.77,1.77,0,1,1,0,3.54H190a1.48,1.48,0,0,0,0,3h2.31a11.82,11.82,0,0,1,8.59-9.07,11.3,11.3,0,0,1,3-.39Zm4.73,10.05a1.78,1.78,0,1,0-1.77,1.77A1.78,1.78,0,0,0,218.11,33.52Z"/></svg>
